<!DOCTYPE svg PUBLIC "-//W3C//DTD SVG 1.1//EN" "http://www.w3.org/Graphics/SVG/1.1/DTD/svg11.dtd">
<!-- Uploaded to: SVG Repo, www.svgrepo.com, Transformed by: SVG Repo Mixer Tools -->
<svg xmlns="http://www.w3.org/2000/svg" width="800px" height="800px" viewBox="0 0 24 24" fill="none" stroke="#eca7a7" stroke-width="2" stroke-linecap="round" stroke-linejoin="round">
<g id="SVGRepo_bgCarrier" stroke-width="0"/>
<g id="SVGRepo_tracerCarrier" stroke-linecap="round" stroke-linejoin="round"/>
<g id="SVGRepo_iconCarrier"> <path d="M5 5.5A3.5 3.5 0 018.5 2H12v7H8.5A3.5 3.5 0 015 5.5z"/> <path d="M12 2h3.5a3.5 3.5 0 110 7H12V2z"/> <path d="M12 12.5a3.5 3.5 0 117 0 3.5 3.5 0 11-7 0z"/> <path d="M5 19.5A3.5 3.5 0 018.5 16H12v3.5a3.5 3.5 0 11-7 0z"/> <path d="M5 12.5A3.5 3.5 0 018.5 9H12v7H8.5A3.5 3.5 0 015 12.5z"/> </g>
</svg>