<?xml version="1.0" encoding="utf-8"?><svg xmlns="http://www.w3.org/2000/svg" xmlns:xlink="http://www.w3.org/1999/xlink" width="1280" height="559" preserveAspectRatio="xMidYMid" viewBox="0 0 1280 559" style="z-index:1;margin-right:-1.33333px;display:block;background-color:rgb(241, 242, 243);animation-play-state:paused" ><g transform="translate(640,279.5) scale(1,1) translate(-640,-279.5)" style="transform:matrix(1, 0, 0, 1, 0, 0);animation-play-state:paused" ><g id="bk-0.4953061188183574" style="animation-play-state:paused" ><path d="M 639 285 L 742 272 L 652 193 Z" stroke="#d7cfcf" fill="#d7cfcf" style="animation-play-state:paused" ></path>
<path d="M 742 272 L 721 178 L 652 193 Z" stroke="#dacece" fill="#dacece" style="animation-play-state:paused" ></path>
<path d="M 639 285 L 740 375 L 742 272 Z" stroke="#d7d1cf" fill="#d7d1cf" style="animation-play-state:paused" ></path>
<path d="M 742 272 L 827 164 L 721 178 Z" stroke="#d9cfcf" fill="#d9cfcf" style="animation-play-state:paused" ></path>
<path d="M 541 163 L 534 295 L 639 285 Z" stroke="#dccdcd" fill="#dccdcd" style="animation-play-state:paused" ></path>
<path d="M 639 285 L 658 385 L 740 375 Z" stroke="#d8d1cf" fill="#d8d1cf" style="animation-play-state:paused" ></path>
<path d="M 721 178 L 665 90 L 652 193 Z" stroke="#e1caca" fill="#e1caca" style="animation-play-state:paused" ></path>
<path d="M 652 193 L 541 163 L 639 285 Z" stroke="#ddcccc" fill="#ddcccc" style="animation-play-state:paused" ></path>
<path d="M 534 295 L 658 385 L 639 285 Z" stroke="#d7d0d0" fill="#d7d0d0" style="animation-play-state:paused" ></path>
<path d="M 740 375 L 847 285 L 742 272 Z" stroke="#d8d1cf" fill="#d8d1cf" style="animation-play-state:paused" ></path>
<path d="M 847 285 L 827 164 L 742 272 Z" stroke="#d7d0d0" fill="#d7d0d0" style="animation-play-state:paused" ></path>
<path d="M 721 178 L 762 99 L 665 90 Z" stroke="#e2c9c9" fill="#e2c9c9" style="animation-play-state:paused" ></path>
<path d="M 665 90 L 541 163 L 652 193 Z" stroke="#e3c9c9" fill="#e3c9c9" style="animation-play-state:paused" ></path>
<path d="M 827 164 L 762 99 L 721 178 Z" stroke="#decbcc" fill="#decbcc" style="animation-play-state:paused" ></path>
<path d="M 429 359 L 555 390 L 534 295 Z" stroke="#d6d0d0" fill="#d6d0d0" style="animation-play-state:paused" ></path>
<path d="M 534 295 L 555 390 L 658 385 Z" stroke="#d7d0cf" fill="#d7d0cf" style="animation-play-state:paused" ></path>
<path d="M 665 90 L 547 68 L 541 163 Z" stroke="#e8c6c6" fill="#e8c6c6" style="animation-play-state:paused" ></path>
<path d="M 565 6 L 547 68 L 665 90 Z" stroke="#ecc3c3" fill="#ecc3c3" style="animation-play-state:paused" ></path>
<path d="M 746 470 L 843 396 L 740 375 Z" stroke="#d8d3cd" fill="#d8d3cd" style="animation-play-state:paused" ></path>
<path d="M 740 375 L 843 396 L 847 285 Z" stroke="#d8d2ce" fill="#d8d2ce" style="animation-play-state:paused" ></path>
<path d="M 956 189 L 852 98 L 827 164 Z" stroke="#dbcdce" fill="#dbcdce" style="animation-play-state:paused" ></path>
<path d="M 746 470 L 740 375 L 658 385 Z" stroke="#d8d2ce" fill="#d8d2ce" style="animation-play-state:paused" ></path>
<path d="M 956 189 L 827 164 L 847 285 Z" stroke="#d6d0d0" fill="#d6d0d0" style="animation-play-state:paused" ></path>
<path d="M 827 164 L 852 98 L 762 99 Z" stroke="#e0cbcb" fill="#e0cbcb" style="animation-play-state:paused" ></path>
<path d="M 736 -18 L 629 -22 L 665 90 Z" stroke="#eec2c3" fill="#eec2c3" style="animation-play-state:paused" ></path>
<path d="M 432 85 L 466 197 L 541 163 Z" stroke="#e8c6c6" fill="#e8c6c6" style="animation-play-state:paused" ></path>
<path d="M 541 163 L 466 197 L 534 295 Z" stroke="#e1caca" fill="#e1caca" style="animation-play-state:paused" ></path>
<path d="M 652 483 L 746 470 L 658 385 Z" stroke="#d8d2ce" fill="#d8d2ce" style="animation-play-state:paused" ></path>
<path d="M 466 197 L 430 279 L 534 295 Z" stroke="#dfcbcb" fill="#dfcbcb" style="animation-play-state:paused" ></path>
<path d="M 555 390 L 652 483 L 658 385 Z" stroke="#d8d1ce" fill="#d8d1ce" style="animation-play-state:paused" ></path>
<path d="M 736 -18 L 665 90 L 762 99 Z" stroke="#e9c5c6" fill="#e9c5c6" style="animation-play-state:paused" ></path>
<path d="M 955 287 L 956 189 L 847 285 Z" stroke="#d8d1cf" fill="#d8d1cf" style="animation-play-state:paused" ></path>
<path d="M 813 -22 L 762 99 L 852 98 Z" stroke="#e6c7c7" fill="#e6c7c7" style="animation-play-state:paused" ></path>
<path d="M 813 -22 L 736 -18 L 762 99 Z" stroke="#ebc4c4" fill="#ebc4c4" style="animation-play-state:paused" ></path>
<path d="M 938 373 L 955 287 L 847 285 Z" stroke="#d8d2ce" fill="#d8d2ce" style="animation-play-state:paused" ></path>
<path d="M 629 -22 L 565 6 L 665 90 Z" stroke="#eec1c2" fill="#eec1c2" style="animation-play-state:paused" ></path>
<path d="M 547 68 L 432 85 L 541 163 Z" stroke="#ebc4c5" fill="#ebc4c5" style="animation-play-state:paused" ></path>
<path d="M 942 473 L 938 373 L 843 396 Z" stroke="#d7d4cd" fill="#d7d4cd" style="animation-play-state:paused" ></path>
<path d="M 843 396 L 938 373 L 847 285 Z" stroke="#d8d2ce" fill="#d8d2ce" style="animation-play-state:paused" ></path>
<path d="M 430 279 L 429 359 L 534 295 Z" stroke="#dbcdcd" fill="#dbcdcd" style="animation-play-state:paused" ></path>
<path d="M 555 390 L 541 504 L 652 483 Z" stroke="#d8d1ce" fill="#d8d1ce" style="animation-play-state:paused" ></path>
<path d="M 430 473 L 541 504 L 555 390 Z" stroke="#d7d1cf" fill="#d7d1cf" style="animation-play-state:paused" ></path>
<path d="M 565 6 L 432 85 L 547 68 Z" stroke="#efc1c2" fill="#efc1c2" style="animation-play-state:paused" ></path>
<path d="M 323 171 L 326 263 L 430 279 Z" stroke="#e5c7c8" fill="#e5c7c8" style="animation-play-state:paused" ></path>
<path d="M 430 279 L 326 263 L 429 359 Z" stroke="#dfcbcb" fill="#dfcbcb" style="animation-play-state:paused" ></path>
<path d="M 837 566 L 841 487 L 746 470 Z" stroke="#d6d5cd" fill="#d6d5cd" style="animation-play-state:paused" ></path>
<path d="M 746 470 L 841 487 L 843 396 Z" stroke="#d7d4cd" fill="#d7d4cd" style="animation-play-state:paused" ></path>
<path d="M 1052 188 L 948 85 L 956 189 Z" stroke="#d7cfcf" fill="#d7cfcf" style="animation-play-state:paused" ></path>
<path d="M 956 189 L 948 85 L 852 98 Z" stroke="#dccdcd" fill="#dccdcd" style="animation-play-state:paused" ></path>
<path d="M 927 -13 L 813 -22 L 852 98 Z" stroke="#e9c5c6" fill="#e9c5c6" style="animation-play-state:paused" ></path>
<path d="M 736 -18 L 643 -112 L 629 -22 Z" stroke="#e5aaab" fill="#e5aaab" style="animation-play-state:paused" ></path>
<path d="M 841 487 L 942 473 L 843 396 Z" stroke="#d7d4cd" fill="#d7d4cd" style="animation-play-state:paused" ></path>
<path d="M 1041 400 L 1025 255 L 955 287 Z" stroke="#d8d3cd" fill="#d8d3cd" style="animation-play-state:paused" ></path>
<path d="M 664 601 L 721 587 L 652 483 Z" stroke="#d7d4cd" fill="#d7d4cd" style="animation-play-state:paused" ></path>
<path d="M 652 483 L 721 587 L 746 470 Z" stroke="#d7d3cd" fill="#d7d3cd" style="animation-play-state:paused" ></path>
<path d="M 841 487 L 953 587 L 942 473 Z" stroke="#dad9d0" fill="#dad9d0" style="animation-play-state:paused" ></path>
<path d="M 429 359 L 430 473 L 555 390 Z" stroke="#d7d0d0" fill="#d7d0d0" style="animation-play-state:paused" ></path>
<path d="M 541 504 L 664 601 L 652 483 Z" stroke="#d8d3cd" fill="#d8d3cd" style="animation-play-state:paused" ></path>
<path d="M 1041 400 L 955 287 L 938 373 Z" stroke="#d8d3cd" fill="#d8d3cd" style="animation-play-state:paused" ></path>
<path d="M 955 287 L 1025 255 L 956 189 Z" stroke="#d8d1cf" fill="#d8d1cf" style="animation-play-state:paused" ></path>
<path d="M 730 -132 L 643 -112 L 736 -18 Z" stroke="#e09d9f" fill="#e09d9f" style="animation-play-state:paused" ></path>
<path d="M 629 -22 L 542 -123 L 565 6 Z" stroke="#e1a1a3" fill="#e1a1a3" style="animation-play-state:paused" ></path>
<path d="M 565 6 L 440 -34 L 432 85 Z" stroke="#e7afb0" fill="#e7afb0" style="animation-play-state:paused" ></path>
<path d="M 531 571 L 664 601 L 541 504 Z" stroke="#d8d2ce" fill="#d8d2ce" style="animation-play-state:paused" ></path>
<path d="M 323 171 L 430 279 L 466 197 Z" stroke="#e5c7c8" fill="#e5c7c8" style="animation-play-state:paused" ></path>
<path d="M 429 359 L 334 366 L 430 473 Z" stroke="#d8cfcf" fill="#d8cfcf" style="animation-play-state:paused" ></path>
<path d="M 542 -123 L 440 -34 L 565 6 Z" stroke="#dd989a" fill="#dd989a" style="animation-play-state:paused" ></path>
<path d="M 432 85 L 323 171 L 466 197 Z" stroke="#eac4c5" fill="#eac4c5" style="animation-play-state:paused" ></path>
<path d="M 329 67 L 323 171 L 432 85 Z" stroke="#eebfc0" fill="#eebfc0" style="animation-play-state:paused" ></path>
<path d="M 717 670 L 837 566 L 721 587 Z" stroke="#d7d6ce" fill="#d7d6ce" style="animation-play-state:paused" ></path>
<path d="M 721 587 L 837 566 L 746 470 Z" stroke="#d6d5cd" fill="#d6d5cd" style="animation-play-state:paused" ></path>
<path d="M 430 473 L 531 571 L 541 504 Z" stroke="#d8d1ce" fill="#d8d1ce" style="animation-play-state:paused" ></path>
<path d="M 1025 255 L 1052 188 L 956 189 Z" stroke="#d7d1cf" fill="#d7d1cf" style="animation-play-state:paused" ></path>
<path d="M 948 85 L 927 -13 L 852 98 Z" stroke="#e4c8c8" fill="#e4c8c8" style="animation-play-state:paused" ></path>
<path d="M 1039 -26 L 927 -13 L 948 85 Z" stroke="#e7c6c7" fill="#e7c6c7" style="animation-play-state:paused" ></path>
<path d="M 813 -22 L 730 -132 L 736 -18 Z" stroke="#e8b0b2" fill="#e8b0b2" style="animation-play-state:paused" ></path>
<path d="M 832 -138 L 730 -132 L 813 -22 Z" stroke="#e2a2a4" fill="#e2a2a4" style="animation-play-state:paused" ></path>
<path d="M 326 263 L 334 366 L 429 359 Z" stroke="#dfcbcb" fill="#dfcbcb" style="animation-play-state:paused" ></path>
<path d="M 430 473 L 428 573 L 531 571 Z" stroke="#d8d1cf" fill="#d8d1cf" style="animation-play-state:paused" ></path>
<path d="M 344 4 L 329 67 L 432 85 Z" stroke="#e6acad" fill="#e6acad" style="animation-play-state:paused" ></path>
<path d="M 730 -132 L 542 -123 L 643 -112 Z" stroke="#d6888a" fill="#d6888a" style="animation-play-state:paused" ></path>
<path d="M 643 -112 L 542 -123 L 629 -22 Z" stroke="#db9496" fill="#db9496" style="animation-play-state:paused" ></path>
<path d="M 1025 474 L 1041 400 L 942 473 Z" stroke="#d9d8cf" fill="#d9d8cf" style="animation-play-state:paused" ></path>
<path d="M 942 473 L 1041 400 L 938 373 Z" stroke="#d6d5cd" fill="#d6d5cd" style="animation-play-state:paused" ></path>
<path d="M 1025 255 L 1139 204 L 1052 188 Z" stroke="#d8d1cf" fill="#d8d1cf" style="animation-play-state:paused" ></path>
<path d="M 1052 188 L 1048 71 L 948 85 Z" stroke="#dbcdcd" fill="#dbcdcd" style="animation-play-state:paused" ></path>
<path d="M 1148 91 L 1048 71 L 1052 188 Z" stroke="#d9cece" fill="#d9cece" style="animation-play-state:paused" ></path>
<path d="M 957 -125 L 832 -138 L 813 -22 Z" stroke="#e5aaab" fill="#e5aaab" style="animation-play-state:paused" ></path>
<path d="M 338 -118 L 344 4 L 440 -34 Z" stroke="#d58689" fill="#d58689" style="animation-play-state:paused" ></path>
<path d="M 440 -34 L 344 4 L 432 85 Z" stroke="#e3a5a6" fill="#e3a5a6" style="animation-play-state:paused" ></path>
<path d="M 339 500 L 428 573 L 430 473 Z" stroke="#d7d0cf" fill="#d7d0cf" style="animation-play-state:paused" ></path>
<path d="M 655 670 L 717 670 L 664 601 Z" stroke="#d7d4cd" fill="#d7d4cd" style="animation-play-state:paused" ></path>
<path d="M 334 366 L 339 500 L 430 473 Z" stroke="#d7d0d0" fill="#d7d0d0" style="animation-play-state:paused" ></path>
<path d="M 655 670 L 664 601 L 547 686 Z" stroke="#d7d4cd" fill="#d7d4cd" style="animation-play-state:paused" ></path>
<path d="M 664 601 L 717 670 L 721 587 Z" stroke="#d6d5cd" fill="#d6d5cd" style="animation-play-state:paused" ></path>
<path d="M 953 587 L 1025 474 L 942 473 Z" stroke="#dcdbd2" fill="#dcdbd2" style="animation-play-state:paused" ></path>
<path d="M 953 587 L 841 487 L 837 566 Z" stroke="#dad9d0" fill="#dad9d0" style="animation-play-state:paused" ></path>
<path d="M 730 -132 L 447 -127 L 542 -123 Z" stroke="#d17e82" fill="#d17e82" style="animation-play-state:paused" ></path>
<path d="M 542 -123 L 447 -127 L 440 -34 Z" stroke="#d28184" fill="#d28184" style="animation-play-state:paused" ></path>
<path d="M 238 -135 L 447 -127 L 730 -132 Z" stroke="#ca7175" fill="#ca7175" style="animation-play-state:paused" ></path>
<path d="M 927 -13 L 957 -125 L 813 -22 Z" stroke="#eebfc0" fill="#eebfc0" style="animation-play-state:paused" ></path>
<path d="M 1039 -26 L 957 -125 L 927 -13 Z" stroke="#eec2c3" fill="#eec2c3" style="animation-play-state:paused" ></path>
<path d="M 1048 71 L 1039 -26 L 948 85 Z" stroke="#e3c9c9" fill="#e3c9c9" style="animation-play-state:paused" ></path>
<path d="M 326 263 L 244 283 L 334 366 Z" stroke="#e3c9c9" fill="#e3c9c9" style="animation-play-state:paused" ></path>
<path d="M 334 366 L 242 481 L 339 500 Z" stroke="#dacece" fill="#dacece" style="animation-play-state:paused" ></path>
<path d="M 219 171 L 244 283 L 326 263 Z" stroke="#e9c5c5" fill="#e9c5c5" style="animation-play-state:paused" ></path>
<path d="M 219 171 L 326 263 L 323 171 Z" stroke="#ebc4c4" fill="#ebc4c4" style="animation-play-state:paused" ></path>
<path d="M 219 171 L 323 171 L 231 76 Z" stroke="#ecbabb" fill="#ecbabb" style="animation-play-state:paused" ></path>
<path d="M 861 700 L 953 587 L 837 566 Z" stroke="#ddddd3" fill="#ddddd3" style="animation-play-state:paused" ></path>
<path d="M 547 686 L 664 601 L 531 571 Z" stroke="#d8d3cd" fill="#d8d3cd" style="animation-play-state:paused" ></path>
<path d="M 231 76 L 329 67 L 257 -5 Z" stroke="#df9b9d" fill="#df9b9d" style="animation-play-state:paused" ></path>
<path d="M 231 76 L 323 171 L 329 67 Z" stroke="#eab4b5" fill="#eab4b5" style="animation-play-state:paused" ></path>
<path d="M 143 289 L 241 396 L 244 283 Z" stroke="#e6c7c7" fill="#e6c7c7" style="animation-play-state:paused" ></path>
<path d="M 244 283 L 241 396 L 334 366 Z" stroke="#e1caca" fill="#e1caca" style="animation-play-state:paused" ></path>
<path d="M 426 679 L 531 571 L 428 573 Z" stroke="#d8d2ce" fill="#d8d2ce" style="animation-play-state:paused" ></path>
<path d="M 426 679 L 547 686 L 531 571 Z" stroke="#d8d2ce" fill="#d8d2ce" style="animation-play-state:paused" ></path>
<path d="M 257 -5 L 329 67 L 344 4 Z" stroke="#dd989a" fill="#dd989a" style="animation-play-state:paused" ></path>
<path d="M 1140 461 L 1041 400 L 1025 474 Z" stroke="#dbdad1" fill="#dbdad1" style="animation-play-state:paused" ></path>
<path d="M 1140 461 L 1120 378 L 1041 400 Z" stroke="#d9d8cf" fill="#d9d8cf" style="animation-play-state:paused" ></path>
<path d="M 1041 400 L 1154 296 L 1025 255 Z" stroke="#d8d3cd" fill="#d8d3cd" style="animation-play-state:paused" ></path>
<path d="M 1048 71 L 1148 91 L 1039 -26 Z" stroke="#e1caca" fill="#e1caca" style="animation-play-state:paused" ></path>
<path d="M 1120 378 L 1154 296 L 1041 400 Z" stroke="#d7d4cd" fill="#d7d4cd" style="animation-play-state:paused" ></path>
<path d="M 1154 296 L 1139 204 L 1025 255 Z" stroke="#d8d2ce" fill="#d8d2ce" style="animation-play-state:paused" ></path>
<path d="M 242 481 L 340 568 L 339 500 Z" stroke="#d7d0d0" fill="#d7d0d0" style="animation-play-state:paused" ></path>
<path d="M 339 500 L 340 568 L 428 573 Z" stroke="#d7d0cf" fill="#d7d0cf" style="animation-play-state:paused" ></path>
<path d="M 547 686 L 861 700 L 655 670 Z" stroke="#d6d5cd" fill="#d6d5cd" style="animation-play-state:paused" ></path>
<path d="M 655 670 L 861 700 L 717 670 Z" stroke="#d8d7cf" fill="#d8d7cf" style="animation-play-state:paused" ></path>
<path d="M 717 670 L 861 700 L 837 566 Z" stroke="#dadad1" fill="#dadad1" style="animation-play-state:paused" ></path>
<path d="M 1139 204 L 1148 91 L 1052 188 Z" stroke="#d7d0d0" fill="#d7d0d0" style="animation-play-state:paused" ></path>
<path d="M 447 -127 L 338 -118 L 440 -34 Z" stroke="#ce797d" fill="#ce797d" style="animation-play-state:paused" ></path>
<path d="M 338 -118 L 257 -5 L 344 4 Z" stroke="#d38185" fill="#d38185" style="animation-play-state:paused" ></path>
<path d="M 241 396 L 242 481 L 334 366 Z" stroke="#decccc" fill="#decccc" style="animation-play-state:paused" ></path>
<path d="M 143 464 L 242 481 L 241 396 Z" stroke="#dfcbcb" fill="#dfcbcb" style="animation-play-state:paused" ></path>
<path d="M 368 707 L 426 679 L 428 573 Z" stroke="#d8d1cf" fill="#d8d1cf" style="animation-play-state:paused" ></path>
<path d="M 1057 592 L 1025 474 L 953 587 Z" stroke="#e0e0d5" fill="#e0e0d5" style="animation-play-state:paused" ></path>
<path d="M 1057 592 L 1140 461 L 1025 474 Z" stroke="#e0e0d5" fill="#e0e0d5" style="animation-play-state:paused" ></path>
<path d="M 1233 385 L 1217 275 L 1154 296 Z" stroke="#d7d4cd" fill="#d7d4cd" style="animation-play-state:paused" ></path>
<path d="M 1130 -136 L 1039 -135 L 1039 -26 Z" stroke="#ebb7b9" fill="#ebb7b9" style="animation-play-state:paused" ></path>
<path d="M 1039 -26 L 1039 -135 L 957 -125 Z" stroke="#eab5b6" fill="#eab5b6" style="animation-play-state:paused" ></path>
<path d="M 957 -125 L 1039 -135 L 832 -138 Z" stroke="#e09fa1" fill="#e09fa1" style="animation-play-state:paused" ></path>
<path d="M 1044 683 L 1057 592 L 953 587 Z" stroke="#e4e4d8" fill="#e4e4d8" style="animation-play-state:paused" ></path>
<path d="M 861 700 L 947 682 L 953 587 Z" stroke="#e0e0d5" fill="#e0e0d5" style="animation-play-state:paused" ></path>
<path d="M 1148 91 L 1144 -26 L 1039 -26 Z" stroke="#e4c8c8" fill="#e4c8c8" style="animation-play-state:paused" ></path>
<path d="M 1252 -3 L 1144 -26 L 1148 91 Z" stroke="#e3c9c9" fill="#e3c9c9" style="animation-play-state:paused" ></path>
<path d="M 147 163 L 244 283 L 219 171 Z" stroke="#eec2c3" fill="#eec2c3" style="animation-play-state:paused" ></path>
<path d="M 147 163 L 143 289 L 244 283 Z" stroke="#ecc3c4" fill="#ecc3c4" style="animation-play-state:paused" ></path>
<path d="M 147 163 L 219 171 L 130 84 Z" stroke="#e5aaac" fill="#e5aaac" style="animation-play-state:paused" ></path>
<path d="M 130 84 L 219 171 L 231 76 Z" stroke="#e3a5a7" fill="#e3a5a7" style="animation-play-state:paused" ></path>
<path d="M 1233 385 L 1154 296 L 1120 378 Z" stroke="#d6d5cd" fill="#d6d5cd" style="animation-play-state:paused" ></path>
<path d="M 1154 296 L 1217 275 L 1139 204 Z" stroke="#d8d2ce" fill="#d8d2ce" style="animation-play-state:paused" ></path>
<path d="M 1139 204 L 1256 84 L 1148 91 Z" stroke="#d6d0d0" fill="#d6d0d0" style="animation-play-state:paused" ></path>
<path d="M 242 481 L 250 573 L 340 568 Z" stroke="#d7cfcf" fill="#d7cfcf" style="animation-play-state:paused" ></path>
<path d="M 340 568 L 368 707 L 428 573 Z" stroke="#d7d1cf" fill="#d7d1cf" style="animation-play-state:paused" ></path>
<path d="M 128 596 L 250 573 L 242 481 Z" stroke="#dbcdcd" fill="#dbcdcd" style="animation-play-state:paused" ></path>
<path d="M 251 696 L 368 707 L 340 568 Z" stroke="#d7d0cf" fill="#d7d0cf" style="animation-play-state:paused" ></path>
<path d="M 426 679 L 368 707 L 547 686 Z" stroke="#d8d2ce" fill="#d8d2ce" style="animation-play-state:paused" ></path>
<path d="M 547 686 L 368 707 L 861 700 Z" stroke="#d7d3cd" fill="#d7d3cd" style="animation-play-state:paused" ></path>
<path d="M 257 -5 L 130 84 L 231 76 Z" stroke="#db9396" fill="#db9396" style="animation-play-state:paused" ></path>
<path d="M 124 -25 L 130 84 L 257 -5 Z" stroke="#d38285" fill="#d38285" style="animation-play-state:paused" ></path>
<path d="M 1217 275 L 1235 189 L 1139 204 Z" stroke="#d8d2ce" fill="#d8d2ce" style="animation-play-state:paused" ></path>
<path d="M 35 280 L 119 358 L 143 289 Z" stroke="#ecc3c4" fill="#ecc3c4" style="animation-play-state:paused" ></path>
<path d="M 143 289 L 119 358 L 241 396 Z" stroke="#e6c7c7" fill="#e6c7c7" style="animation-play-state:paused" ></path>
<path d="M 1057 592 L 1146 605 L 1140 461 Z" stroke="#e4e5d9" fill="#e4e5d9" style="animation-play-state:paused" ></path>
<path d="M 1140 461 L 1233 385 L 1120 378 Z" stroke="#dadad1" fill="#dadad1" style="animation-play-state:paused" ></path>
<path d="M 947 682 L 1044 683 L 953 587 Z" stroke="#e3e3d8" fill="#e3e3d8" style="animation-play-state:paused" ></path>
<path d="M 861 700 L 1044 683 L 947 682 Z" stroke="#e2e2d7" fill="#e2e2d7" style="animation-play-state:paused" ></path>
<path d="M 1238 481 L 1233 385 L 1140 461 Z" stroke="#deded4" fill="#deded4" style="animation-play-state:paused" ></path>
<path d="M 1217 275 L 1353 198 L 1235 189 Z" stroke="#d8d2ce" fill="#d8d2ce" style="animation-play-state:paused" ></path>
<path d="M 1231 -136 L 1130 -136 L 1144 -26 Z" stroke="#edbdbe" fill="#edbdbe" style="animation-play-state:paused" ></path>
<path d="M 1144 -26 L 1130 -136 L 1039 -26 Z" stroke="#edc2c3" fill="#edc2c3" style="animation-play-state:paused" ></path>
<path d="M 1039 -135 L 1317 -147 L 832 -138 Z" stroke="#e3a4a5" fill="#e3a4a5" style="animation-play-state:paused" ></path>
<path d="M 447 -127 L 238 -135 L 338 -118 Z" stroke="#c36368" fill="#c36368" style="animation-play-state:paused" ></path>
<path d="M 338 -118 L 238 -135 L 257 -5 Z" stroke="#c76a6f" fill="#c76a6f" style="animation-play-state:paused" ></path>
<path d="M 832 -138 L 238 -135 L 730 -132 Z" stroke="#d17e81" fill="#d17e81" style="animation-play-state:paused" ></path>
<path d="M 1252 -3 L 1256 84 L 1328 82 Z" stroke="#ddcccc" fill="#ddcccc" style="animation-play-state:paused" ></path>
<path d="M 1235 189 L 1256 84 L 1139 204 Z" stroke="#d7d1cf" fill="#d7d1cf" style="animation-play-state:paused" ></path>
<path d="M 1140 673 L 1146 605 L 1057 592 Z" stroke="#e8e9dc" fill="#e8e9dc" style="animation-play-state:paused" ></path>
<path d="M 119 358 L 143 464 L 241 396 Z" stroke="#e3c8c9" fill="#e3c8c9" style="animation-play-state:paused" ></path>
<path d="M 250 573 L 251 696 L 340 568 Z" stroke="#d6d0d0" fill="#d6d0d0" style="animation-play-state:paused" ></path>
<path d="M 1146 605 L 1238 481 L 1140 461 Z" stroke="#e4e4d8" fill="#e4e4d8" style="animation-play-state:paused" ></path>
<path d="M 238 -135 L 124 -25 L 257 -5 Z" stroke="#c86c71" fill="#c86c71" style="animation-play-state:paused" ></path>
<path d="M 26 75 L 62 184 L 147 163 Z" stroke="#df9c9e" fill="#df9c9e" style="animation-play-state:paused" ></path>
<path d="M 147 163 L 62 184 L 143 289 Z" stroke="#ebb8b9" fill="#ebb8b9" style="animation-play-state:paused" ></path>
<path d="M 119 358 L 42 389 L 143 464 Z" stroke="#e7c6c7" fill="#e7c6c7" style="animation-play-state:paused" ></path>
<path d="M 1044 683 L 1140 673 L 1057 592 Z" stroke="#e7e8dc" fill="#e7e8dc" style="animation-play-state:paused" ></path>
<path d="M 1146 605 L 1243 581 L 1238 481 Z" stroke="#e8e9dc" fill="#e8e9dc" style="animation-play-state:paused" ></path>
<path d="M 143 690 L 251 696 L 250 573 Z" stroke="#d8cfcf" fill="#d8cfcf" style="animation-play-state:paused" ></path>
<path d="M 1256 84 L 1252 -3 L 1148 91 Z" stroke="#decccc" fill="#decccc" style="animation-play-state:paused" ></path>
<path d="M 1328 82 L 1256 84 L 1235 189 Z" stroke="#d6d0d0" fill="#d6d0d0" style="animation-play-state:paused" ></path>
<path d="M 1353 198 L 1217 275 L 1350 292 Z" stroke="#d8d3cd" fill="#d8d3cd" style="animation-play-state:paused" ></path>
<path d="M 26 75 L 147 163 L 130 84 Z" stroke="#dc9597" fill="#dc9597" style="animation-play-state:paused" ></path>
<path d="M 31 568 L 128 596 L 143 464 Z" stroke="#e1caca" fill="#e1caca" style="animation-play-state:paused" ></path>
<path d="M 143 464 L 128 596 L 242 481 Z" stroke="#decbcc" fill="#decbcc" style="animation-play-state:paused" ></path>
<path d="M 62 184 L 35 280 L 143 289 Z" stroke="#edbcbd" fill="#edbcbd" style="animation-play-state:paused" ></path>
<path d="M 238 -135 L 153 -125 L 124 -25 Z" stroke="#be585f" fill="#be585f" style="animation-play-state:paused" ></path>
<path d="M 124 -25 L 26 75 L 130 84 Z" stroke="#d17f82" fill="#d17f82" style="animation-play-state:paused" ></path>
<path d="M 1238 689 L 1243 581 L 1146 605 Z" stroke="#eceee0" fill="#eceee0" style="animation-play-state:paused" ></path>
<path d="M 35 280 L 42 389 L 119 358 Z" stroke="#ebc3c4" fill="#ebc3c4" style="animation-play-state:paused" ></path>
<path d="M 15 -22 L 26 75 L 124 -25 Z" stroke="#c86c71" fill="#c86c71" style="animation-play-state:paused" ></path>
<path d="M 62 184 L -59 263 L 35 280 Z" stroke="#e7adaf" fill="#e7adaf" style="animation-play-state:paused" ></path>
<path d="M 1252 -3 L 1231 -136 L 1144 -26 Z" stroke="#ebc4c5" fill="#ebc4c5" style="animation-play-state:paused" ></path>
<path d="M 1130 -136 L 1317 -147 L 1039 -135 Z" stroke="#e5aaab" fill="#e5aaab" style="animation-play-state:paused" ></path>
<path d="M 1350 292 L 1233 385 L 1358 398 Z" stroke="#d9d8cf" fill="#d9d8cf" style="animation-play-state:paused" ></path>
<path d="M 1350 292 L 1217 275 L 1233 385 Z" stroke="#d7d4cd" fill="#d7d4cd" style="animation-play-state:paused" ></path>
<path d="M 1252 -3 L 1325 -33 L 1231 -136 Z" stroke="#eac4c5" fill="#eac4c5" style="animation-play-state:paused" ></path>
<path d="M 1358 398 L 1233 385 L 1238 481 Z" stroke="#deded4" fill="#deded4" style="animation-play-state:paused" ></path>
<path d="M 1353 198 L 1328 82 L 1235 189 Z" stroke="#d7d1cf" fill="#d7d1cf" style="animation-play-state:paused" ></path>
<path d="M -60 380 L 42 389 L 35 280 Z" stroke="#eec2c3" fill="#eec2c3" style="animation-play-state:paused" ></path>
<path d="M -60 380 L 20 472 L 42 389 Z" stroke="#ebc4c4" fill="#ebc4c4" style="animation-play-state:paused" ></path>
<path d="M 42 389 L 20 472 L 143 464 Z" stroke="#e6c7c7" fill="#e6c7c7" style="animation-play-state:paused" ></path>
<path d="M 128 596 L 143 690 L 250 573 Z" stroke="#dbcdcd" fill="#dbcdcd" style="animation-play-state:paused" ></path>
<path d="M 1350 483 L 1358 398 L 1238 481 Z" stroke="#e2e2d7" fill="#e2e2d7" style="animation-play-state:paused" ></path>
<path d="M 62 689 L 143 690 L 128 596 Z" stroke="#decccc" fill="#decccc" style="animation-play-state:paused" ></path>
<path d="M 251 696 L 143 690 L 368 707 Z" stroke="#d6d0d0" fill="#d6d0d0" style="animation-play-state:paused" ></path>
<path d="M 1328 82 L 1325 -33 L 1252 -3 Z" stroke="#e2c9ca" fill="#e2c9ca" style="animation-play-state:paused" ></path>
<path d="M 49 -102 L 15 -22 L 124 -25 Z" stroke="#be5960" fill="#be5960" style="animation-play-state:paused" ></path>
<path d="M 26 75 L -42 90 L 62 184 Z" stroke="#d6898c" fill="#d6898c" style="animation-play-state:paused" ></path>
<path d="M 1243 581 L 1350 483 L 1238 481 Z" stroke="#e7e8db" fill="#e7e8db" style="animation-play-state:paused" ></path>
<path d="M 1358 583 L 1350 483 L 1243 581 Z" stroke="#eaecdf" fill="#eaecdf" style="animation-play-state:paused" ></path>
<path d="M 1044 683 L 1238 689 L 1140 673 Z" stroke="#ebeddf" fill="#ebeddf" style="animation-play-state:paused" ></path>
<path d="M 1140 673 L 1238 689 L 1146 605 Z" stroke="#eceee0" fill="#eceee0" style="animation-play-state:paused" ></path>
<path d="M 153 -125 L 49 -102 L 124 -25 Z" stroke="#bd555c" fill="#bd555c" style="animation-play-state:paused" ></path>
<path d="M 20 472 L 31 568 L 143 464 Z" stroke="#e4c8c8" fill="#e4c8c8" style="animation-play-state:paused" ></path>
<path d="M -51 -17 L 26 75 L 15 -22 Z" stroke="#c46469" fill="#c46469" style="animation-play-state:paused" ></path>
<path d="M -51 -17 L -42 90 L 26 75 Z" stroke="#c86d72" fill="#c86d72" style="animation-play-state:paused" ></path>
<path d="M 20 472 L -69 580 L 31 568 Z" stroke="#e7c6c7" fill="#e7c6c7" style="animation-play-state:paused" ></path>
<path d="M 1446 -123 L 1317 -147 L 1325 -33 Z" stroke="#eec2c2" fill="#eec2c2" style="animation-play-state:paused" ></path>
<path d="M 1325 -33 L 1317 -147 L 1231 -136 Z" stroke="#efc0c1" fill="#efc0c1" style="animation-play-state:paused" ></path>
<path d="M 1231 -136 L 1317 -147 L 1130 -136 Z" stroke="#e7adae" fill="#e7adae" style="animation-play-state:paused" ></path>
<path d="M 832 -138 L 1317 -147 L 238 -135 Z" stroke="#d98f92" fill="#d98f92" style="animation-play-state:paused" ></path>
<path d="M 1448 -8 L 1325 -33 L 1328 82 Z" stroke="#e1caca" fill="#e1caca" style="animation-play-state:paused" ></path>
<path d="M 1436 179 L 1328 82 L 1353 198 Z" stroke="#d7d1cf" fill="#d7d1cf" style="animation-play-state:paused" ></path>
<path d="M -75 160 L -59 263 L 62 184 Z" stroke="#df9b9d" fill="#df9b9d" style="animation-play-state:paused" ></path>
<path d="M 1428 371 L 1428 273 L 1350 292 Z" stroke="#d6d5cd" fill="#d6d5cd" style="animation-play-state:paused" ></path>
<path d="M 1350 292 L 1428 273 L 1353 198 Z" stroke="#d8d3cd" fill="#d8d3cd" style="animation-play-state:paused" ></path>
<path d="M 1428 371 L 1350 292 L 1358 398 Z" stroke="#d9d9d0" fill="#d9d9d0" style="animation-play-state:paused" ></path>
<path d="M 1428 273 L 1436 179 L 1353 198 Z" stroke="#d8d2ce" fill="#d8d2ce" style="animation-play-state:paused" ></path>
<path d="M -59 263 L -60 380 L 35 280 Z" stroke="#eab6b7" fill="#eab6b7" style="animation-play-state:paused" ></path>
<path d="M -42 90 L -75 160 L 62 184 Z" stroke="#d88c8e" fill="#d88c8e" style="animation-play-state:paused" ></path>
<path d="M 1238 689 L 1358 583 L 1243 581 Z" stroke="#ebeddf" fill="#ebeddf" style="animation-play-state:paused" ></path>
<path d="M 1431 464 L 1428 371 L 1358 398 Z" stroke="#e0dfd5" fill="#e0dfd5" style="animation-play-state:paused" ></path>
<path d="M -52 687 L 62 689 L 31 568 Z" stroke="#e3c8c9" fill="#e3c8c9" style="animation-play-state:paused" ></path>
<path d="M 31 568 L 62 689 L 128 596 Z" stroke="#e1caca" fill="#e1caca" style="animation-play-state:paused" ></path>
<path d="M 143 690 L 62 689 L 368 707 Z" stroke="#d9cece" fill="#d9cece" style="animation-play-state:paused" ></path>
<path d="M 1448 -8 L 1446 74 L 1534 95 Z" stroke="#dccdcd" fill="#dccdcd" style="animation-play-state:paused" ></path>
<path d="M 1436 179 L 1446 74 L 1328 82 Z" stroke="#d6d0d0" fill="#d6d0d0" style="animation-play-state:paused" ></path>
<path d="M 1431 464 L 1358 398 L 1350 483 Z" stroke="#e3e3d8" fill="#e3e3d8" style="animation-play-state:paused" ></path>
<path d="M 1534 95 L 1446 74 L 1436 179 Z" stroke="#d7d0d0" fill="#d7d0d0" style="animation-play-state:paused" ></path>
<path d="M 1436 598 L 1431 464 L 1350 483 Z" stroke="#eaebde" fill="#eaebde" style="animation-play-state:paused" ></path>
<path d="M -67 -132 L -51 -17 L 15 -22 Z" stroke="#ba4e55" fill="#ba4e55" style="animation-play-state:paused" ></path>
<path d="M -166 72 L -181 166 L -75 160 Z" stroke="#cb7276" fill="#cb7276" style="animation-play-state:paused" ></path>
<path d="M -151 378 L -80 463 L -60 380 Z" stroke="#edbdbe" fill="#edbdbe" style="animation-play-state:paused" ></path>
<path d="M -60 380 L -80 463 L 20 472 Z" stroke="#ecc3c4" fill="#ecc3c4" style="animation-play-state:paused" ></path>
<path d="M -69 580 L -80 463 L -154 481 Z" stroke="#ecc3c3" fill="#ecc3c3" style="animation-play-state:paused" ></path>
<path d="M 1238 689 L 1340 669 L 1358 583 Z" stroke="#eaecde" fill="#eaecde" style="animation-play-state:paused" ></path>
<path d="M 1358 583 L 1436 598 L 1350 483 Z" stroke="#eceee0" fill="#eceee0" style="animation-play-state:paused" ></path>
<path d="M 1044 683 L 1340 669 L 1238 689 Z" stroke="#ebeddf" fill="#ebeddf" style="animation-play-state:paused" ></path>
<path d="M 1549 703 L 1340 669 L 1044 683 Z" stroke="#e9ebdd" fill="#e9ebdd" style="animation-play-state:paused" ></path>
<path d="M 1519 256 L 1436 179 L 1428 273 Z" stroke="#d8d3cd" fill="#d8d3cd" style="animation-play-state:paused" ></path>
<path d="M 1446 74 L 1448 -8 L 1328 82 Z" stroke="#ddcccc" fill="#ddcccc" style="animation-play-state:paused" ></path>
<path d="M -80 463 L -69 580 L 20 472 Z" stroke="#eac5c5" fill="#eac5c5" style="animation-play-state:paused" ></path>
<path d="M -141 288 L -60 380 L -59 263 Z" stroke="#e6abac" fill="#e6abac" style="animation-play-state:paused" ></path>
<path d="M 153 -125 L -67 -132 L 49 -102 Z" stroke="#b7484e" fill="#b7484e" style="animation-play-state:paused" ></path>
<path d="M 49 -102 L -67 -132 L 15 -22 Z" stroke="#b84b51" fill="#b84b51" style="animation-play-state:paused" ></path>
<path d="M -181 166 L -59 263 L -75 160 Z" stroke="#d78b8d" fill="#d78b8d" style="animation-play-state:paused" ></path>
<path d="M 238 -135 L -67 -132 L 153 -125 Z" stroke="#b84b51" fill="#b84b51" style="animation-play-state:paused" ></path>
<path d="M -75 160 L -42 90 L -166 72 Z" stroke="#cb7377" fill="#cb7377" style="animation-play-state:paused" ></path>
<path d="M -181 166 L -141 288 L -59 263 Z" stroke="#da9294" fill="#da9294" style="animation-play-state:paused" ></path>
<path d="M 1448 -8 L 1446 -123 L 1325 -33 Z" stroke="#e9c5c6" fill="#e9c5c6" style="animation-play-state:paused" ></path>
<path d="M 1437 683 L 1436 598 L 1358 583 Z" stroke="#e9ebdd" fill="#e9ebdd" style="animation-play-state:paused" ></path>
<path d="M 1536 374 L 1428 273 L 1428 371 Z" stroke="#d9d8cf" fill="#d9d8cf" style="animation-play-state:paused" ></path>
<path d="M 1536 374 L 1519 256 L 1428 273 Z" stroke="#d6d5cd" fill="#d6d5cd" style="animation-play-state:paused" ></path>
<path d="M 1536 374 L 1428 371 L 1529 473 Z" stroke="#e0e0d5" fill="#e0e0d5" style="animation-play-state:paused" ></path>
<path d="M 1448 -8 L 1532 -134 L 1446 -123 Z" stroke="#ecc3c4" fill="#ecc3c4" style="animation-play-state:paused" ></path>
<path d="M -139 -3 L -42 90 L -51 -17 Z" stroke="#bf5b62" fill="#bf5b62" style="animation-play-state:paused" ></path>
<path d="M -242 299 L -151 378 L -141 288 Z" stroke="#df9b9d" fill="#df9b9d" style="animation-play-state:paused" ></path>
<path d="M -141 288 L -151 378 L -60 380 Z" stroke="#e7adaf" fill="#e7adaf" style="animation-play-state:paused" ></path>
<path d="M 1529 473 L 1428 371 L 1431 464 Z" stroke="#e3e3d8" fill="#e3e3d8" style="animation-play-state:paused" ></path>
<path d="M -154 681 L -52 687 L -69 580 Z" stroke="#e9c5c6" fill="#e9c5c6" style="animation-play-state:paused" ></path>
<path d="M -69 580 L -52 687 L 31 568 Z" stroke="#e6c7c7" fill="#e6c7c7" style="animation-play-state:paused" ></path>
<path d="M 1340 669 L 1437 683 L 1358 583 Z" stroke="#e8eadc" fill="#e8eadc" style="animation-play-state:paused" ></path>
<path d="M 1533 578 L 1529 473 L 1431 464 Z" stroke="#eaecde" fill="#eaecde" style="animation-play-state:paused" ></path>
<path d="M -147 -114 L -139 -3 L -51 -17 Z" stroke="#b8494f" fill="#b8494f" style="animation-play-state:paused" ></path>
<path d="M -151 378 L -154 481 L -80 463 Z" stroke="#edbcbd" fill="#edbcbd" style="animation-play-state:paused" ></path>
<path d="M -139 -3 L -166 72 L -42 90 Z" stroke="#c15e64" fill="#c15e64" style="animation-play-state:paused" ></path>
<path d="M -258 463 L -154 481 L -151 378 Z" stroke="#e8afb1" fill="#e8afb1" style="animation-play-state:paused" ></path>
<path d="M 1536 374 L 1557 188 L 1519 256 Z" stroke="#d7d4cd" fill="#d7d4cd" style="animation-play-state:paused" ></path>
<path d="M 1519 256 L 1557 188 L 1436 179 Z" stroke="#d8d2ce" fill="#d8d2ce" style="animation-play-state:paused" ></path>
<path d="M 1557 188 L 1534 95 L 1436 179 Z" stroke="#d7d1cf" fill="#d7d1cf" style="animation-play-state:paused" ></path>
<path d="M 1533 578 L 1431 464 L 1436 598 Z" stroke="#ebeddf" fill="#ebeddf" style="animation-play-state:paused" ></path>
<path d="M 1536 374 L 1529 473 L 1557 188 Z" stroke="#dad9d0" fill="#dad9d0" style="animation-play-state:paused" ></path>
<path d="M 1557 188 L 1534 -4 L 1534 95 Z" stroke="#d6d0d0" fill="#d6d0d0" style="animation-play-state:paused" ></path>
<path d="M 1534 95 L 1534 -4 L 1448 -8 Z" stroke="#dfcbcb" fill="#dfcbcb" style="animation-play-state:paused" ></path>
<path d="M -67 -132 L -147 -114 L -51 -17 Z" stroke="#b54248" fill="#b54248" style="animation-play-state:paused" ></path>
<path d="M -264 -23 L -254 98 L -166 72 Z" stroke="#ba4f56" fill="#ba4f56" style="animation-play-state:paused" ></path>
<path d="M 1549 703 L 1533 578 L 1436 598 Z" stroke="#e7e9db" fill="#e7e9db" style="animation-play-state:paused" ></path>
<path d="M 1529 473 L 1549 703 L 1557 188 Z" stroke="#e5e6da" fill="#e5e6da" style="animation-play-state:paused" ></path>
<path d="M -242 299 L -141 288 L -259 189 Z" stroke="#d58688" fill="#d58688" style="animation-play-state:paused" ></path>
<path d="M -258 463 L -183 554 L -154 481 Z" stroke="#eab6b7" fill="#eab6b7" style="animation-play-state:paused" ></path>
<path d="M -154 481 L -183 554 L -69 580 Z" stroke="#edc2c3" fill="#edc2c3" style="animation-play-state:paused" ></path>
<path d="M -259 189 L -141 288 L -181 166 Z" stroke="#d17f82" fill="#d17f82" style="animation-play-state:paused" ></path>
<path d="M -259 189 L -181 166 L -254 98 Z" stroke="#c5666c" fill="#c5666c" style="animation-play-state:paused" ></path>
<path d="M 1534 -4 L 1532 -134 L 1448 -8 Z" stroke="#e8c6c6" fill="#e8c6c6" style="animation-play-state:paused" ></path>
<path d="M 1446 -123 L 1532 -134 L 1317 -147 Z" stroke="#ebb6b7" fill="#ebb6b7" style="animation-play-state:paused" ></path>
<path d="M -254 98 L -181 166 L -166 72 Z" stroke="#c26167" fill="#c26167" style="animation-play-state:paused" ></path>
<path d="M -264 -23 L -166 72 L -139 -3 Z" stroke="#b94d54" fill="#b94d54" style="animation-play-state:paused" ></path>
<path d="M -259 189 L -273 388 L -242 299 Z" stroke="#d48487" fill="#d48487" style="animation-play-state:paused" ></path>
<path d="M -242 299 L -273 388 L -151 378 Z" stroke="#de999b" fill="#de999b" style="animation-play-state:paused" ></path>
<path d="M -258 463 L -273 388 L -259 189 Z" stroke="#d98f91" fill="#d98f91" style="animation-play-state:paused" ></path>
<path d="M -183 554 L -154 681 L -69 580 Z" stroke="#ecc3c4" fill="#ecc3c4" style="animation-play-state:paused" ></path>
<path d="M -52 687 L -154 681 L 62 689 Z" stroke="#e6c7c7" fill="#e6c7c7" style="animation-play-state:paused" ></path>
<path d="M -259 595 L -154 681 L -183 554 Z" stroke="#efc1c2" fill="#efc1c2" style="animation-play-state:paused" ></path>
<path d="M -147 -114 L -264 -23 L -139 -3 Z" stroke="#b44147" fill="#b44147" style="animation-play-state:paused" ></path>
<path d="M -254 98 L -258 463 L -259 189 Z" stroke="#cf7b7f" fill="#cf7b7f" style="animation-play-state:paused" ></path>
<path d="M -262 -117 L -258 463 L -254 98 Z" stroke="#c26066" fill="#c26066" style="animation-play-state:paused" ></path>
<path d="M -273 388 L -258 463 L -151 378 Z" stroke="#e2a2a4" fill="#e2a2a4" style="animation-play-state:paused" ></path>
<path d="M 1340 669 L 1549 703 L 1437 683 Z" stroke="#e6e8da" fill="#e6e8da" style="animation-play-state:paused" ></path>
<path d="M 1437 683 L 1549 703 L 1436 598 Z" stroke="#e6e8da" fill="#e6e8da" style="animation-play-state:paused" ></path>
<path d="M 1533 578 L 1549 703 L 1529 473 Z" stroke="#e9ebdd" fill="#e9ebdd" style="animation-play-state:paused" ></path>
<path d="M 861 700 L 1549 703 L 1044 683 Z" stroke="#eceee0" fill="#eceee0" style="animation-play-state:paused" ></path>
<path d="M 368 707 L 1549 703 L 861 700 Z" stroke="#e1e1d6" fill="#e1e1d6" style="animation-play-state:paused" ></path>
<path d="M 62 689 L 1549 703 L 368 707 Z" stroke="#d7d4cd" fill="#d7d4cd" style="animation-play-state:paused" ></path>
<path d="M -258 463 L -259 595 L -183 554 Z" stroke="#e9b3b4" fill="#e9b3b4" style="animation-play-state:paused" ></path>
<path d="M -147 -114 L -262 -117 L -264 -23 Z" stroke="#af353b" fill="#af353b" style="animation-play-state:paused" ></path>
<path d="M -264 -23 L -262 -117 L -254 98 Z" stroke="#b44046" fill="#b44046" style="animation-play-state:paused" ></path>
<path d="M -67 -132 L -262 -117 L -147 -114 Z" stroke="#ae333a" fill="#ae333a" style="animation-play-state:paused" ></path>
<path d="M -154 681 L -261 664 L 62 689 Z" stroke="#eac4c5" fill="#eac4c5" style="animation-play-state:paused" ></path>
<path d="M -259 595 L -261 664 L -154 681 Z" stroke="#edbdbe" fill="#edbdbe" style="animation-play-state:paused" ></path>
<path d="M -258 463 L -261 664 L -259 595 Z" stroke="#e8b0b2" fill="#e8b0b2" style="animation-play-state:paused" ></path></g>
<style type="text/css" style="animation-play-state:paused" >#bk-0.4953061188183574 path { stroke-width: 1 }</style></g></svg>